<svg xmlns="http://www.w3.org/2000/svg" xmlns:xlink="http://www.w3.org/1999/xlink">
    <defs>
        <path id="d9fvwqweta" d="M24.008 0C28.422 0 32 3.578 32 7.992v16.016C32 28.422 28.422 32 24.008 32H7.992C3.578 32 0 28.422 0 24.008V7.992C0 3.578 3.578 0 7.992 0h16.016z"/>
    </defs>
    <g fill="none" fill-rule="evenodd">
        <use fill="#FFF" xlink:href="#d9fvwqweta"/>
        <use fill="#E7E7E7" xlink:href="#d9fvwqweta"/>
        <g>
            <path fill="#383A39" d="M1.96 13.16l.054.447c.088.752.157 1.496.21 2.23l-.006.019c1.834.687 4.187 1.108 6.762 1.136h.286c2.685-.002 5.145-.435 7.045-1.15l-.006-.02c.05-.734.12-1.478.204-2.229l.053-.447c.227-1.847.544-9.115.932-10.754l-.033-.252c.017-.096-.162-.076-.162-.178l.09-.063c.005-.024-.054-.137-.054-.16 0-.919-3.483-1.616-8.08-1.616-4.595 0-8.39.954-8.32 1.662.003.03.004.06.011.09" transform="translate(6.63 7.325)"/>
            <path fill="#0B1B13" d="M17.568 1.857c.005-.024.01-.048.01-.072 0-.784-2.721-1.44-6.38-1.616-2.175.515-1.942 1.12-1.942 3.857v12.967h.01c2.685-.003 5.146-.436 7.046-1.15l-.007-.02" transform="translate(6.63 7.325)"/>
            <path fill="#FF7400" d="M2.224 15.837l-.006.019c1.834.687 4.187 1.108 6.762 1.136h.286c2.685-.002 5.145-.435 7.045-1.15l-.006-.02c.05-.734.12-1.478.204-2.229l.053-.447c.025-.2.05-.465.077-.777-7.626.782-12.93.25-14.757.004" transform="translate(6.63 7.325)"/>
            <path fill="#C75A00" d="M16.593 12.87l.008-.089.016-.167.003-.031.019-.214c-2.791.286-5.27.396-7.383.408v4.216h.01c2.685-.003 5.146-.436 7.046-1.15l-.007-.02c.05-.735.12-1.479.204-2.23l.053-.447c.007-.053.014-.112.02-.174l.01-.103z" transform="translate(6.63 7.325)"/>
            <path fill="#383A39" d="M17.75 14.85c-.08 0-.157.01-.232.022-.196.01-.383.03-.546.065l-.09.02c-.172.04-.35.08-.533.118-1.91.393-4.384.632-7.085.633h-.288c-2.589-.015-4.954-.247-6.799-.624-.184-.037-.362-.077-.534-.117l-.09-.02c-.067-.015-.144-.024-.218-.034-.121-.039-.256-.063-.4-.063-.494 0-.894.545-.894.86 0 .571.56.792 1.032.904 2.04.486 4.171.704 6.264.793.642.027 1.285.04 1.929.04 2.142-.002 4.298-.135 6.41-.506.642-.112 1.3-.201 1.935-.351.46-.109 1.034-.32 1.034-.88 0-.315-.4-.86-.895-.86z" transform="translate(6.63 7.325)"/>
        </g>
    </g>
</svg>
