<svg xmlns="http://www.w3.org/2000/svg" xmlns:xlink="http://www.w3.org/1999/xlink">
    <defs>
        <path id="ynyzd936aa" d="M0.004 0.029L10.615 0.029 10.615 11.054 0.004 11.054z"/>
        <path id="dhe7hb1y9c" d="M0 0.029L10.795 0.029 10.795 15.464 0 15.464z"/>
    </defs>
    <g fill="none" fill-rule="evenodd">
        <path fill="#06AA48" d="M10.256 0h11.488c3.567 0 4.86.371 6.163 1.069 1.304.697 2.327 1.72 3.024 3.024C31.63 5.396 32 6.689 32 10.256v11.488c0 3.567-.371 4.86-1.069 6.163-.697 1.304-1.72 2.327-3.024 3.024C26.604 31.63 25.311 32 21.744 32H10.256c-3.567 0-4.86-.371-6.163-1.069-1.304-.697-2.327-1.72-3.024-3.024C.37 26.604 0 25.311 0 21.744V10.256c0-3.567.371-4.86 1.069-6.163.697-1.304 1.72-2.327 3.024-3.024C5.396.37 6.689 0 10.256 0z"/>
        <g>
            <g transform="translate(5 10) translate(11.359 .01)">
                <mask id="h8m2kdgkob" fill="#fff">
                    <use xlink:href="#ynyzd936aa"/>
                </mask>
                <path fill="#FFF" d="M2.852 4.255c.299-1.079 1.217-1.86 2.504-1.86 1.056 0 1.975.666 2.273 1.86H2.852zM5.287.03C2.393.03.004 2.418.004 5.542c0 3.192 2.389 5.512 5.443 5.512 2.458 0 4.295-1.08 4.938-3.032.115-.344-.045-.597-.436-.597H8.204c-.3 0-.483.115-.667.368-.436.574-1.079.826-1.975.826-1.4 0-2.457-.895-2.733-2.25h7.235c.344 0 .551-.207.551-.552v-.023C10.615 2.58 8.617.03 5.287.03z" mask="url(#h8m2kdgkob)"/>
            </g>
            <g transform="translate(5 10) translate(0 .01)">
                <mask id="4xwpuxpk8d" fill="#fff">
                    <use xlink:href="#dhe7hb1y9c"/>
                </mask>
                <path fill="#FFF" d="M5.397 8.344c-1.447 0-2.664-1.149-2.664-2.825 0-1.7 1.217-2.825 2.664-2.825S8.04 3.819 8.04 5.519c0 1.676-1.195 2.825-2.642 2.825m4.847-8.13H8.682c-.345 0-.551.206-.551.55v.598C7.51.604 6.362.029 5.214.029 2.412.03 0 2.418 0 5.542c0 3.123 2.274 5.282 5.145 5.282 1.286 0 2.274-.597 2.848-1.217-.023 2.182-1.172 3.17-3.147 3.17-1.056 0-2.044-.322-3.192-1.057-.299-.207-.643-.138-.804.184l-.69 1.355c-.16.321-.114.62.207.827 1.424.918 3.101 1.378 4.548 1.378 3.79 0 5.88-2.044 5.88-6.753V.764c0-.344-.207-.55-.551-.55" mask="url(#4xwpuxpk8d)"/>
            </g>
        </g>
    </g>
</svg>
