<svg xmlns="http://www.w3.org/2000/svg">
    <path d="M24 0H8C3.58172 0 0 3.58172 0 8V24C0 28.4183 3.58172 32 8 32H24C28.4183 32 32 28.4183 32 24V8C32 3.58172 28.4183 0 24 0Z" fill="url(#paint0_linear_globoplay)"/>
    <path d="M5.54561 16.7392C4.86721 16.7392 4.10242 16.5056 3.33122 16.0608C3.27042 16.0256 3.22882 15.9712 3.20962 15.904C3.19042 15.8368 3.20002 15.7664 3.23522 15.7056L3.52642 15.12C3.57122 15.04 3.66082 14.9888 3.75362 14.9888C3.80162 14.9888 3.84962 15.0016 3.88802 15.0272C4.52162 15.4336 5.00801 15.5808 5.51361 15.5808C6.39361 15.5808 6.92161 15.0432 6.92161 14.2336C6.64641 14.48 6.32001 14.7648 5.72161 14.7648C4.35522 14.7648 3.24482 13.6288 3.24482 12.2368C3.24482 10.8448 4.35522 9.7088 5.72161 9.7088C6.14721 9.7088 6.47041 9.8432 6.97921 10.2464C6.99201 10.1152 6.92481 9.792 7.11681 9.792H7.93921C8.08321 9.792 8.19841 9.9104 8.19841 10.0512V12.1856V12.2016C8.19841 12.2144 8.19841 12.2272 8.19841 12.24C8.19841 12.2528 8.19841 12.2656 8.19841 12.2784V12.2976V13.152C8.20481 14.5952 8.04161 15.4208 7.42721 16.048C6.97601 16.5024 6.24001 16.7392 5.54561 16.7392ZM5.72161 10.928C5.05921 10.928 4.52162 11.5136 4.52162 12.2368C4.52162 12.9568 5.05921 13.5456 5.72161 13.5456C6.36801 13.5456 6.90561 12.9728 6.92161 12.2688V12.2016C6.90561 11.5008 6.36801 10.928 5.72161 10.928Z" fill="#F3F3F3"/>
    <path d="M18.9473 14.7648C18.5889 14.7648 18.1281 14.6048 17.7025 14.2208C17.7025 14.4224 17.7473 14.6848 17.4881 14.6848H16.7329C16.5889 14.6848 16.4737 14.5664 16.4737 14.4256V8.02241C16.4737 7.87841 16.5921 7.76321 16.7329 7.76321H17.4881C17.6321 7.76321 17.7473 7.88161 17.7473 8.02241V10.2304C18.1601 9.81761 18.6241 9.70561 18.9473 9.70561C20.3137 9.70561 21.4241 10.8416 21.4241 12.2336C21.4241 13.6256 20.3137 14.7648 18.9473 14.7648ZM18.9473 10.928C18.2849 10.928 17.7473 11.5136 17.7473 12.2368C17.7473 12.9568 18.2849 13.5456 18.9473 13.5456C19.6097 13.5456 20.1473 12.96 20.1473 12.2368C20.1473 11.5168 19.6097 10.928 18.9473 10.928Z" fill="#F3F3F3"/>
    <path d="M13.3535 17.296C12.9951 17.296 12.5343 17.456 12.1087 17.84C12.1087 17.6384 12.1535 17.376 11.8943 17.376H11.1359C10.9919 17.376 10.8767 17.4944 10.8767 17.6352V24.0384C10.8767 24.1824 10.9951 24.2976 11.1359 24.2976H11.8911C12.0351 24.2976 12.1503 24.1792 12.1503 24.0384V21.8304C12.5631 22.2432 13.0271 22.3552 13.3503 22.3552C14.7167 22.3552 15.8271 21.2192 15.8271 19.8272C15.8335 18.432 14.7199 17.296 13.3535 17.296ZM13.3535 21.1328C12.6911 21.1328 12.1535 20.5472 12.1535 19.824C12.1535 19.1008 12.6911 18.5152 13.3535 18.5152C14.0159 18.5152 14.5535 19.1008 14.5535 19.824C14.5535 20.5472 14.0159 21.1328 13.3535 21.1328Z" fill="#F3F3F3"/>
    <path d="M24.4416 14.7648C23.0464 14.7648 21.9104 13.6288 21.9104 12.2368C21.9104 10.8448 23.0464 9.7088 24.4416 9.7088C25.8368 9.7088 26.9728 10.8448 26.9728 12.2368C26.9728 13.6288 25.8368 14.7648 24.4416 14.7648ZM24.4416 10.9344C23.7504 10.9344 23.1872 11.52 23.1872 12.2368C23.1872 12.9536 23.7504 13.5392 24.4416 13.5392C25.1328 13.5392 25.696 12.9536 25.696 12.2368C25.696 11.52 25.1328 10.9344 24.4416 10.9344Z" fill="#F3F3F3"/>
    <path d="M13.3471 14.7648C11.9519 14.7648 10.8159 13.6288 10.8159 12.2368C10.8159 10.8448 11.9519 9.7088 13.3471 9.7088C14.7423 9.7088 15.8783 10.8448 15.8783 12.2368C15.8783 13.6288 14.7455 14.7648 13.3471 14.7648ZM13.3471 10.9344C12.6559 10.9344 12.0927 11.52 12.0927 12.2368C12.0927 12.9536 12.6559 13.5392 13.3471 13.5392C14.0383 13.5392 14.6015 12.9536 14.6015 12.2368C14.6047 11.52 14.0415 10.9344 13.3471 10.9344Z" fill="#F3F3F3"/>
    <path d="M16.7265 22.2752C16.5825 22.2752 16.4673 22.1568 16.4673 22.016V15.6128C16.4673 15.4688 16.5857 15.3536 16.7265 15.3536H17.4817C17.6257 15.3536 17.7409 15.472 17.7409 15.6128V22.016C17.7409 22.16 17.6225 22.2752 17.4817 22.2752H16.7265Z" fill="#F3F3F3"/>
    <path d="M25.1136 24.32C24.4544 24.3168 23.9808 24.1216 23.7568 23.9424C23.6544 23.8592 23.6288 23.7216 23.696 23.6064L24.0544 22.992C24.1024 22.912 24.1888 22.8608 24.2816 22.864C24.336 22.864 24.3904 22.8832 24.4352 22.9152C24.4896 22.9568 24.688 23.1168 24.9408 23.1232C25.1168 23.1232 25.5584 22.9568 25.8304 22.2912L23.9328 17.7408C23.8976 17.6608 23.9072 17.568 23.9552 17.4944C24.0032 17.4208 24.0864 17.376 24.1728 17.376L24.9952 17.3792C25.0976 17.3792 25.1936 17.44 25.232 17.536L26.4384 20.4576L27.488 17.5456C27.5264 17.4432 27.6256 17.376 27.7344 17.376H28.5376C28.624 17.376 28.704 17.4208 28.752 17.4912C28.8 17.5616 28.8288 17.6608 28.7808 17.8496L27.104 22.3008C26.6624 23.3856 25.8912 24.3232 25.1136 24.32Z" fill="#F3F3F3"/>
    <path d="M20.8223 17.296C21.1807 17.296 21.6447 17.4592 22.0703 17.84C22.0703 17.6384 22.0255 17.376 22.2847 17.376H23.0399C23.1839 17.376 23.3023 17.4944 23.3023 17.6384V22.0544C23.3023 22.1984 23.1839 22.2752 23.0399 22.2752H22.2847C22.1407 22.2752 22.0223 22.1984 22.0223 22.0544V21.8336C21.6095 22.2464 21.1455 22.3584 20.8223 22.3584C19.4559 22.3584 18.3423 21.2224 18.3423 19.8272C18.3423 18.432 19.4559 17.296 20.8223 17.296ZM20.8223 21.136C21.4847 21.136 22.0223 20.5504 22.0223 19.8272C22.0223 19.1072 21.4847 18.5184 20.8223 18.5184C20.1599 18.5184 19.6223 19.104 19.6223 19.8272C19.6191 20.5504 20.1599 21.136 20.8223 21.136Z" fill="#F3F3F3"/>
    <path d="M9.25758 14.7648C9.10078 14.7648 8.93438 14.6528 8.93438 14.3392V8.10559C8.93438 7.70879 9.17758 7.67999 9.25118 7.67999C9.30558 7.67999 9.36318 7.69279 9.42718 7.71839L9.89758 7.92639C10.1248 8.03199 10.2304 8.21439 10.2304 8.49919V13.936C10.2304 14.2176 10.1248 14.4 9.90398 14.5088L9.43038 14.7296C9.36318 14.752 9.30558 14.7648 9.25758 14.7648Z" fill="#F3F3F3"/>
    <defs>
        <linearGradient id="paint0_linear_globoplay" x1="0.592934" y1="0.592934" x2="32.5929" y2="32.5929" gradientUnits="userSpaceOnUse">
            <stop offset="0.25" stop-color="#FB0334"/>
            <stop offset="0.3576" stop-color="#FB0F2F"/>
            <stop offset="0.5544" stop-color="#FC3123"/>
            <stop offset="0.8165" stop-color="#FE6610"/>
            <stop offset="1" stop-color="#FF8F01"/>
        </linearGradient>
    </defs>
</svg>
