<svg xmlns="http://www.w3.org/2000/svg">
  <path fill-rule="evenodd" clip-rule="evenodd" d="M10.256 0H21.744C25.311 0 26.604 0.371 27.907 1.069C29.211 1.766 30.234 2.789 30.931 4.093C31.63 5.396 32 6.689 32 10.256V21.744C32 25.311 31.629 26.604 30.931 27.907C30.234 29.211 29.211 30.234 27.907 30.931C26.604 31.63 25.311 32 21.744 32H10.256C6.689 32 5.396 31.629 4.093 30.931C2.789 30.234 1.766 29.211 1.069 27.907C0.37 26.604 0 25.311 0 21.744V10.256C0 6.689 0.371 5.396 1.069 4.093C1.766 2.789 2.789 1.766 4.093 1.069C5.396 0.37 6.689 0 10.256 0Z" fill="#FF6700"/>
  <path fill-rule="evenodd" clip-rule="evenodd" d="M16 5C19.053 5 21.65 6.07 23.79 8.21C25.93 10.35 27 12.947 27 16C27 19.054 25.93 21.65 23.79 23.79C21.65 25.93 19.053 27 16 27C12.946 27 10.35 25.93 8.21 23.79C6.07 21.65 5 19.053 5 16C5 12.96 6.073 10.366 8.22 8.22C10.366 6.072 12.96 5 16 5ZM22.2 15.169C21.772 15.169 21.424 15.516 21.424 15.945C21.424 17.451 20.909 18.699 19.848 19.758C18.788 20.818 17.538 21.333 16.028 21.333C14.521 21.333 13.276 20.818 12.223 19.76C11.169 18.7 10.656 17.452 10.656 15.945C10.656 15.516 10.309 15.169 9.88 15.169C9.452 15.169 9.104 15.516 9.104 15.945C9.104 17.857 9.784 19.508 11.123 20.855C12.463 22.202 14.113 22.885 16.029 22.885C17.944 22.885 19.598 22.202 20.945 20.856C22.293 19.51 22.977 17.858 22.977 15.945C22.977 15.516 22.629 15.169 22.2 15.169V15.169Z" fill="white"/>
</svg>
