<svg xmlns="http://www.w3.org/2000/svg">
    <g clip-path="url(#clip0)">
        <rect y="0.468628" width="32" height="32" rx="6" fill="#1E4C9A"/>
        <path d="M26 16.0459C26 18.7523 24.9908 21.0917 23.0183 23.0642C21.0459 25.0367 18.7064 26 15.9541 26C13.2018 26 10.8624 24.9908 8.93578 23.0642C6.9633 21.0917 6 18.7523 6 16C6 13.2477 7.00917 10.9083 8.93578 8.93578C9.94495 7.97248 11 7.23853 12.1927 6.73395C13.3853 6.22936 14.6697 6 16.0459 6C17.422 6 18.7523 6.27523 20.0367 6.87156C21.3211 7.42202 22.422 8.20183 23.3394 9.25688L19.7615 12.5138C19.3486 12.0092 18.7523 11.6422 18.0183 11.3211L17.055 11C16.7339 10.9083 16.367 10.9083 16.0459 10.9083C14.578 10.9083 13.3853 11.4128 12.422 12.3761C11.4128 13.3853 10.9541 14.578 10.9541 16C10.9541 17.3761 11.4587 18.6147 12.422 19.6239C13.4312 20.633 14.6239 21.1376 16.0459 21.1376C17.0092 21.1376 17.9266 20.9083 18.7523 20.4037C19.578 19.8991 20.2202 19.1651 20.6789 18.156H16.2752V14.1651L25.9083 14.211L26 15.4495V16.0459Z" fill="white"/>
    </g>
    <defs>
        <clipPath id="clip0">
            <path d="M0 8.46863C0 4.05035 3.58172 0.468628 8 0.468628H24C28.4183 0.468628 32 4.05035 32 8.46863V24.4686C32 28.8869 28.4183 32.4686 24 32.4686H8C3.58172 32.4686 0 28.8869 0 24.4686V8.46863Z" fill="white"/>
        </clipPath>
    </defs>
</svg>
