<svg xmlns="http://www.w3.org/2000/svg">
    <g clip-path="url(#clip0)">
        <rect y="0.468628" width="32" height="32" fill="black"/>
        <path fill-rule="evenodd" clip-rule="evenodd" d="M5.62479 12.4531C5.55579 12.4499 5.48589 12.4481 5.41491 12.4481C3.15092 12.4481 1.87298 14.1361 1.8728 16.2538C1.8728 16.2606 1.87297 16.2673 1.87314 16.2741L1.87346 16.2899C1.87382 16.3439 1.87448 16.3977 1.87652 16.4511L1.87712 16.462C1.94762 18.2178 2.9147 19.6403 4.60503 19.9819C4.85829 20.0321 5.12835 20.0585 5.41491 20.0585C5.83969 20.0585 6.22952 19.9979 6.58294 19.8859L7.26698 20.8096L8.5301 19.7759L7.96926 19.0138C8.01516 18.9643 8.05953 18.9134 8.10237 18.8611C8.15235 18.7999 8.20119 18.7376 8.24703 18.6727C8.26021 18.654 8.27283 18.6348 8.28546 18.6156L8.30073 18.5925C8.34519 18.5257 8.38809 18.4578 8.42811 18.3876C8.44039 18.3661 8.45205 18.3441 8.46369 18.3221L8.46369 18.3221L8.47587 18.2992C8.51289 18.2298 8.54835 18.1594 8.58117 18.0871C8.59605 18.0543 8.61003 18.021 8.62408 17.9875L8.62408 17.9875L8.62443 17.9867C8.65521 17.9134 8.68431 17.839 8.71089 17.7629C8.72277 17.729 8.73387 17.6946 8.74491 17.6603C8.77089 17.5791 8.79495 17.4969 8.81619 17.4131C8.82362 17.3838 8.83046 17.3542 8.83729 17.3245L8.8373 17.3245L8.83731 17.3245C8.85891 17.2309 8.87835 17.136 8.89401 17.0394C8.89713 17.02 8.90001 17.0004 8.90289 16.9808C8.91915 16.872 8.93253 16.7617 8.94135 16.6495L8.94291 16.627C8.95191 16.5048 8.95689 16.3808 8.95695 16.2551V16.2538C8.95695 16.1878 8.95569 16.1223 8.95323 16.0572C8.87901 14.1145 7.69827 12.5565 5.63379 12.4538L5.62479 12.4531ZM6.83999 17.4792C7.01427 17.117 7.08543 16.6859 7.08543 16.2542C7.08543 16.1105 7.07661 15.967 7.05969 15.8259C7.0585 15.8162 7.05706 15.8067 7.05562 15.7971L7.05243 15.7752C7.04547 15.724 7.03803 15.6732 7.02873 15.6229C7.02646 15.611 7.02393 15.5993 7.02138 15.5875L7.01673 15.5657C7.00683 15.5174 6.99633 15.4695 6.98409 15.4224C6.98162 15.413 6.97893 15.4037 6.97623 15.3944L6.97179 15.379C6.95745 15.3272 6.94203 15.2761 6.92475 15.226L6.91773 15.207C6.73119 14.6807 6.37899 14.2628 5.81361 14.1303C5.78266 14.1228 5.75026 14.1177 5.71787 14.1125L5.71787 14.1125L5.69523 14.1089C5.68627 14.1075 5.67751 14.1058 5.66876 14.1041C5.65552 14.1015 5.64229 14.0989 5.62839 14.0973C5.55891 14.0889 5.48727 14.0841 5.41269 14.0841C5.26509 14.0841 5.12805 14.1015 5.00055 14.1332C4.99436 14.1347 4.98845 14.1366 4.98254 14.1385L4.98254 14.1385C4.97768 14.1401 4.97282 14.1416 4.96779 14.143C4.91829 14.1564 4.86951 14.171 4.82307 14.189C4.80924 14.1943 4.79609 14.2005 4.78293 14.2066L4.76217 14.2161L4.75785 14.218L4.75784 14.218C4.72424 14.2328 4.69066 14.2476 4.65885 14.2648C4.64322 14.2733 4.62838 14.2827 4.61353 14.292L4.59507 14.3036L4.59237 14.3052L4.59236 14.3052C4.56332 14.323 4.53427 14.3407 4.50681 14.3605C4.49377 14.37 4.48131 14.3802 4.46886 14.3903L4.45377 14.4026C4.42395 14.4264 4.39437 14.4504 4.36647 14.4765C4.35869 14.4839 4.35122 14.4916 4.34376 14.4993L4.33209 14.5112C4.29957 14.5437 4.26801 14.5771 4.23825 14.6127L4.23176 14.6209L4.22619 14.628C3.90159 15.0255 3.7409 15.6056 3.7409 16.2536C3.7409 16.6723 3.81026 17.062 3.94616 17.3936L3.95074 17.4051L3.95074 17.4052C3.95385 17.4131 3.95696 17.421 3.96027 17.4287C3.97485 17.4628 3.99063 17.4956 4.00671 17.5282C4.02117 17.5583 4.03593 17.588 4.05171 17.617C4.05787 17.628 4.06429 17.6388 4.07072 17.6495L4.07733 17.6607C4.10259 17.7042 4.12917 17.7464 4.15761 17.7871L4.15899 17.789C4.36077 18.0766 4.64199 18.2906 5.01765 18.3783C5.02642 18.3804 5.03559 18.3819 5.04476 18.3833C5.05164 18.3844 5.05851 18.3855 5.06523 18.3869L5.07628 18.3891C5.11854 18.3977 5.16081 18.4063 5.20563 18.4113C5.27247 18.419 5.34141 18.4232 5.41281 18.4232H5.41389H5.41503C5.44375 18.4232 5.47165 18.4228 5.49879 18.4219L5.15576 17.9586L6.43748 16.9322L6.83999 17.4792ZM14.7203 13.9285H12.9486V16.9564C12.9486 17.9585 12.365 18.2199 11.9794 18.2199C11.4166 18.2199 11.104 17.9585 11.104 17.2069V13.9285H9.33228V17.3267C9.33228 18.8081 9.78042 19.7448 11.3332 19.7448C11.9585 19.7448 12.6464 19.3853 12.9799 18.8081H13.0007V19.5814H14.7203V13.9285H14.7203ZM16.8371 16.1723C16.9434 15.486 17.3689 15.0177 18.0068 15.0177C18.613 15.0177 19.049 15.5405 19.0809 16.1723H16.8371ZM20.8888 17.2069C20.9739 15.2899 19.9849 13.7651 18.0068 13.7651C16.3798 13.7651 15.0292 15.0068 15.0292 16.7386C15.0292 18.6338 16.2522 19.7448 18.0494 19.7448C19.283 19.7448 20.4634 19.1784 20.7931 17.8713H19.1022C18.932 18.2852 18.5067 18.4922 18.0707 18.4922C17.305 18.4922 16.869 17.9803 16.8371 17.2069H20.8888ZM21.2907 19.5814H23.0986V16.8258C23.0986 15.6712 23.375 15.29 24.0238 15.29C24.513 15.29 24.7043 15.7039 24.7043 16.3683V19.5814H26.5123V16.8148C26.5123 15.8999 26.5867 15.2899 27.363 15.2899C27.8309 15.2899 28.118 15.6494 28.118 16.2593V19.5814H29.9259V16.2049C29.9259 15.1266 29.7345 13.7651 27.9797 13.7651C27.2354 13.7651 26.693 14.081 26.257 14.68C25.9592 13.9938 25.3424 13.7651 24.6512 13.7651C23.9813 13.7651 23.3964 14.1354 23.0667 14.7018H23.0455V13.9285H21.2907V19.5814Z" fill="white"/>
    </g>
    <defs>
        <clipPath id="clip0">
            <path d="M0 8.46863C0 4.05035 3.58172 0.468628 8 0.468628H24C28.4183 0.468628 32 4.05035 32 8.46863V24.4686C32 28.8869 28.4183 32.4686 24 32.4686H8C3.58172 32.4686 0 28.8869 0 24.4686V8.46863Z" fill="white"/>
        </clipPath>
    </defs>
</svg>
