<svg xmlns="http://www.w3.org/2000/svg">
<rect width="32" height="32" rx="8" fill="#FFC800"/>
<path fill-rule="evenodd" clip-rule="evenodd" d="M25.9844 17.3321C25.7713 24.7909 22.8918 26 21.2174 26C19.5439 26 16.6609 24.7909 16.4504 17.3317C16.437 16.8421 16.8313 16.4348 17.3209 16.4348H25.1139C25.6039 16.4348 25.9983 16.8426 25.9844 17.3321ZM17.3326 6.01609C24.7918 6.2287 26 9.10826 26 10.7826C26 12.4565 24.7918 15.3396 17.3326 15.5491C16.8426 15.5635 16.4348 15.1687 16.4348 14.6787V6.88653C16.4348 6.39652 16.843 6.00174 17.3326 6.01609ZM6.86956 26H14.6956C15.1765 26 15.5652 25.6104 15.5652 25.1304V17.3044C15.5652 16.8239 15.1765 16.4348 14.6956 16.4348H6.86956C6.38957 16.4348 6 16.8239 6 17.3044V25.1304C6 25.6104 6.38957 26 6.86956 26ZM6.86956 15.5652H14.6956C15.1765 15.5652 15.5652 15.1756 15.5652 14.6956V6.86956C15.5652 6.38913 15.1765 6 14.6956 6H6.86956C6.38957 6 6 6.38913 6 6.86956V14.6956C6 15.1756 6.38957 15.5652 6.86956 15.5652Z" fill="#A5147D"/>
</svg>
