<svg xmlns="http://www.w3.org/2000/svg">
  <rect width="32" height="32" rx="6" fill="#006767"/>
  <path fill-rule="evenodd" clip-rule="evenodd" d="M17.334 19.822c-.016 0-.033-.017-.033-.033v-9.073c0-.033-.017-.05-.05-.05-.063 0-.165.007-.283.013-.162.01-.354.02-.518.02h-1.785c-.017 0-.034.017-.034.034v.197c0 .016.017.033.034.033h1c.018 0 .034.016.018.033v8.793c0 .016-.017.032-.034.032h-.717c-.534 0-.818-.164-.818-.87v-3.008c0-1.677-.65-2.416-2.786-2.416-1.152 0-2.386.41-2.386 1.495 0 .362.3.723.834.723s.8-.295.8-.723c0-.11-.007-.219-.015-.334a5.683 5.683 0 01-.018-.405c0-.362.267-.493.718-.493.85 0 1.235.394 1.235 1.364v.608c0 .164-.034.23-.4.329a17.18 17.18 0 01-1.236.295c-1.752.313-2.336 1.02-2.336 1.907 0 1.265 1.035 1.89 2.253 1.89.818 0 1.435-.378 1.702-.904h.05c.067.362.334.805 1.351.805h4.472c.017 0 .034-.016.034-.032v-.198c0-.016-.017-.032-.034-.032h-1.018zm-5.998-3.25c.44-.111.934-.237 1.176-.317v2.12c0 .674-.467 1.447-1.368 1.447-.55 0-.884-.592-.884-1.496 0-1.134.267-1.545 1.034-1.742l.042-.011zm-1.51-5.61c-.15 0-.217.083-.267.215l-3.337 8.891c-.017.017-.033.033-.05.033h-.234c-.016 0-.033-.016-.05-.033l-3.537-9.023c-.017-.05-.05-.082-.1-.082h-.885c-.016 0-.033-.017-.033-.033v-.197c0-.017.017-.033.033-.033h3.988c.017 0 .034.016.034.033v.197c0 .016-.017.033-.034.033H4.37c-.034 0-.05.033-.05.05v.032l2.47 6.624h.033l2.436-6.476a.502.502 0 00.033-.131c0-.05-.05-.1-.133-.1h-.901c-.017 0-.034-.016-.034-.032v-.197c0-.017.017-.033.034-.033h2.369c.017 0 .033.016.033.033v.197c0 .016-.016.033-.033.033h-.801zm15.985 2.943c.016 0 .033.016.033.032v5.852c0 .016-.017.032-.033.032h-1.018c-.017 0-.034.017-.034.033v.198c0 .016.017.032.034.032h3.72c.017 0 .034-.016.034-.032v-.198c0-.016-.017-.032-.033-.032h-1.018c-.017 0-.033-.017-.033-.033v-3.271c0-.92.216-1.512.45-1.825.284-.361.634-.772.985-.772.1 0 .183.033.183.132 0 .075-.017.16-.038.258a2.308 2.308 0 00-.062.498c0 .493.284.805.8.805.618 0 .885-.296.885-.92 0-.576-.3-1.151-1.251-1.151-1.018 0-1.669.674-1.97 1.43h-.032v-1.315c0-.033-.017-.05-.05-.05a5.98 5.98 0 00-.283.013c-.162.01-.354.02-.518.02H24.81c-.017 0-.034.017-.034.034v.197c0 .016.017.033.034.033h1zM21.506 20.2c-1.952 0-3.287-1.299-3.287-3.304s1.351-3.353 3.287-3.353c1.952 0 3.287 1.331 3.287 3.353 0 2.005-1.351 3.303-3.287 3.303zm1.518-3.304c0-1.792-.3-2.58-.734-2.876-.183-.132-.517-.214-.8-.214-.284 0-.618.082-.801.214-.418.296-.735 1.084-.735 2.876 0 1.791.3 2.531.735 2.843.183.132.517.214.8.214.284 0 .618-.082.801-.214.434-.312.735-1.052.735-2.843z" fill="#fff"/>
</svg>